<?xml version="1.0" encoding="UTF-8" standalone="no"?>
<!DOCTYPE svg PUBLIC "-//W3C//DTD SVG 1.1//EN" "http://www.w3.org/Graphics/SVG/1.1/DTD/svg11.dtd">
<svg width="100%" height="100%" viewBox="0 0 1024 1024" version="1.1" xmlns="http://www.w3.org/2000/svg" xmlns:xlink="http://www.w3.org/1999/xlink" xml:space="preserve" xmlns:serif="http://www.serif.com/" style="fill-rule:evenodd;clip-rule:evenodd;stroke-linejoin:round;stroke-miterlimit:2;">
    <g transform="matrix(1.47828,0,0,1.11778,-245.233,-76.5929)">
        <rect x="165.89" y="68.523" width="692.219" height="606.162" style="fill:white;"/>
    </g>
    <g transform="matrix(1.47828,0,0,1.11778,-245.233,-76.5929)">
        <path d="M165.89,647.408L461.703,68.523L534.385,68.523L224.633,674.685L165.89,674.685L165.89,647.408ZM389.502,674.685L316.821,674.685L626.572,68.523L699.253,68.523L389.502,674.685ZM858.11,80.289L554.371,674.685L481.69,674.685L791.441,68.523L858.11,68.523L858.11,80.289ZM858.11,402.926L719.24,674.685L646.559,674.685L858.11,260.694L858.11,402.926ZM858.11,674.685L811.428,674.685L858.11,583.331L858.11,674.685ZM165.89,467.003L165.89,324.771L296.834,68.523L369.516,68.523L165.89,467.003ZM165.89,144.366L165.89,68.523L204.647,68.523L165.89,144.366Z" style="fill:rgb(132,190,235);"/>
    </g>
    <g transform="matrix(1.47828,0,0,0.877475,-260.452,159.995)">
        <path d="M869.354,471.171L594.985,473.455L522.534,589.827L454.957,474.869L176.185,473.455L176.185,984.649L868.405,984.649L869.354,471.171Z" style="fill:rgb(26,34,74);"/>
    </g>
    <g transform="matrix(0.707658,-0.706555,0.706555,0.707658,-222.904,368.042)">
        <path d="M301.015,737.92L209.568,744.747L169.503,869.855L290.304,829.463L301.015,737.92Z" style="fill:white;"/>
    </g>
</svg>
